<?xml version="1.0" standalone="no"?>
<!DOCTYPE svg PUBLIC "-//W3C//DTD SVG 1.1//EN" "http://www.w3.org/Graphics/SVG/1.1/DTD/svg11.dtd">
<svg viewBox="0 0 1024 1024" version="1.1"
    xmlns="http://www.w3.org/2000/svg" xmlns:xlink="http://www.w3.org/1999/xlink"
    width="128" height="128">
    <path
        d="M930.909091 0H93.090909C41.890909 0 0 41.890909 0 93.090909v837.818182c0 51.2 41.890909 93.090909 93.090909 93.090909h837.818182c51.2 0 93.090909-41.890909 93.090909-93.090909V93.090909c0-51.2-41.890909-93.090909-93.090909-93.090909zM353.745455 674.909091c-9.309091 9.309091-23.272727 13.963636-32.581819 13.963636-13.963636 0-23.272727-4.654545-32.581818-13.963636l-134.981818-130.327273c-18.618182-18.618182-18.618182-46.545455 0-65.163636L279.272727 349.090909c18.618182-18.618182 46.545455-18.618182 65.163637 0 9.309091 9.309091 13.963636 23.272727 13.963636 32.581818 0 13.963636-4.654545 23.272727-13.963636 32.581818l-93.090909 97.745455 102.4 97.745455c18.618182 18.618182 18.618182 46.545455 0 65.163636z m288.581818-386.327273l-139.636364 470.109091c-9.309091 23.272727-32.581818 37.236364-55.854545 32.581818-23.272727-9.309091-37.236364-32.581818-32.581819-55.854545l139.636364-470.109091c4.654545-27.927273 32.581818-41.890909 55.854546-32.581818s41.890909 32.581818 32.581818 55.854545z m228.072727 260.654546l-134.981818 130.327272c-9.309091 9.309091-18.618182 13.963636-32.581818 13.963637-13.963636 0-23.272727-4.654545-32.581819-13.963637-18.618182-18.618182-18.618182-46.545455 0-65.163636l102.4-97.745455-97.745454-102.4c-9.309091-9.309091-13.963636-23.272727-13.963636-32.581818 0-13.963636 4.654545-23.272727 13.963636-32.581818 18.618182-18.618182 46.545455-18.618182 65.163636 0l130.327273 134.981818c18.618182 18.618182 18.618182 46.545455 0 65.163637z"
        fill="#2563eb"
    ></path>
</svg>